<svg xmlns="http://www.w3.org/2000/svg" viewBox="0 0 16 16">
  <path fill="currentColor" d="M13.854 2.146a.5.5 0 0 1 0 .708l-8 8a.5.5 0 0 1-.708 0l-3.5-3.5a.5.5 0 0 1 .708-.708L5.5 9.293l7.646-7.647a.5.5 0 0 1 .708 0z"/>
  <path fill-rule="evenodd" d="M16 3.542V15.5a.5.5 0 0 1-.5.5H9.5a.5.5 0 0 1 0-1H15V3.542a.25.25 0 0 0-.25-.25H3.75a.25.25 0 0 0-.25.25V9.5a.5.5 0 0 1-1 0V3.542a1.25 1.25 0 0 1 1.25-1.25H15a1.25 1.25 0 0 1 1.25 1.25v12.208a1.25 1.25 0 0 1-1.25 1.25H2.5a1.25 1.25 0 0 1-1.25-1.25V2.5a1.25 1.25 0 0 1 1.25-1.25h6.25a.5.5 0 0 1 0 1H2.5v12.208a.25.25 0 0 0 .25.25h12.25a.25.25 0 0 0 .25-.25V3.542z"/>
</svg>